<?xml version="1.0" encoding="UTF-8"?>
<svg id="Capa_2" data-name="Capa 2" xmlns="http://www.w3.org/2000/svg" viewBox="0 0 2555.42 1964.07">
  <defs>
    <style>
      .cls-1 {
        fill: #ec6321;
      }

      .cls-2 {
        fill: #3368b1;
      }

      .cls-3 {
        fill: #fff5ed;
      }

      .cls-4 {
        fill: #ec6144;
      }

      .cls-5 {
        fill: #f4f1eb;
      }

      .cls-6 {
        fill: #ef9f52;
      }

      .cls-7 {
        fill: #2a2329;
      }

      .cls-8 {
        fill: #f4aab6;
      }

      .cls-9 {
        fill: #ebc3b4;
      }
    </style>
  </defs>
  <g id="Capa_1-2" data-name="Capa 1">
    <g>
      <path class="cls-3" d="M773.13,1112.36c-2.59-5.03-5.85-9.85-8.96-14.56-11.66-17.64-20.52-36.27-30.32-54.76-1.04-1.95-2.04-3.92-3.02-5.91-.22-.44-.43-.88-.65-1.32-.02-.05-.08-.16-.13-.26.02.05.04.09.07.15-.11-.22-.21-.44-.32-.67-.49-1.04-.97-2.08-1.45-3.12-1.83-4.05-3.53-8.16-5.08-12.32-.78-2.08-1.52-4.17-2.23-6.28-.18-.54-.36-1.09-.54-1.64-.08-.23-.15-.47-.23-.7,0-.02-.04-.12-.07-.21-.04-.11-.07-.23-.08-.26-.1-.31-.2-.63-.29-.94-.17-.55-.34-1.1-.5-1.65-1.3-4.32-2.5-8.68-3.61-13.05-1.08-4.3-2.06-8.63-2.95-12.98-.45-2.18-.87-4.36-1.28-6.54-.03-.18-.2-1.09-.21-1.12-.07-.4-.14-.81-.21-1.21-.2-1.14-.39-2.28-.57-3.42-1.44-8.92-2.6-17.88-3.64-26.86-1.03-8.93-1.98-17.86-2.94-26.79-.49-4.54-.96-9.07-1.43-13.61-.46-4.42-.48-9.26-2.12-13.44-.77-1.96-1.99-4.09-3.96-5.03-1.84-.88-3.72-.09-5.05,1.33-2.63,2.8-4.36,6.39-5.31,10.08-2.06,8.03-.74,16.72,1.39,24.58.02.06.03.11.05.17-2.37-1.97-4.95-3.65-7.81-4.64-5.49-1.92-11.12.11-14.45,4.78-3.96,5.55-4.09,12.58-2.92,19.06,1.28,7.08,3.84,14.04,6.39,20.75,1.43,3.78,3.01,7.5,4.68,11.17-4.61-2.47-9.4-4.59-14.34-6.27-6.35-2.16-13.22-4.1-19.99-3.74-6.27.33-11.92,3.63-13.3,10.13-1.72,8.13,2.64,16.19,6.93,22.76,3.29,5.03,6.59,10.07,9.88,15.1-4.79-1.38-9.58-2.76-14.37-4.14-5.45-1.58-11.78-4.24-17.55-2.95-6.18,1.38-8.26,7.79-7.61,13.47.83,7.26,5.52,12.62,10.12,17.91,1.03,1.18,2.05,2.36,3.08,3.54-2.88-1.21-5.84-2.24-8.85-3.06-6.72-1.83-14.71-3.11-21.1.43-6.49,3.59-8.5,10.98-7.73,17.97.83,7.63,4.46,14.7,9.81,20.14.93.95,1.91,1.85,2.9,2.74-1.48-.39-2.99-.7-4.53-.89-6.15-.77-12.41.51-17.45,4.23-5.55,4.11-7.8,10.97-6.71,17.69,1.23,7.61,5.72,14.25,11.66,19.03,1.84,1.48,3.79,2.79,5.79,4.03-5.07-.13-10.03.76-14.35,3.8-5.38,3.78-8.01,9.78-7.69,16.24.46,9.29,5,9.47,13.41,10.58,18.9,2.48,38.06,1.24,57.01.03,45.98-2.94,91.97-5.87,137.95-8.81,3.45-.22,7.26-.61,9.59-3.16,1.86-2.04,2.29-5,2.25-7.76-.1-6.3-2.17-12.19-5.07-17.82Z"/>
      <g>
        <path class="cls-4" d="M881.92,949.93c-.21-1.17-1.06-4.19-2.64-4.27-.91-.05-1.82-.11-2.73-.16-.91-1.32-2.23-2.57-3.38-1.32-.32.36-.62.73-.94,1.09-.67-.03-1.34-.05-2.01-.06-2.9-.05-5.8-.19-8.68-.5-5.74-.6-11.34-1.96-16.73-4.02-5.26-2.01-10.26-4.59-15.21-7.25-5.29-2.84-10.56-5.7-15.86-8.54-21.47-11.51-43.08-22.78-64.76-33.89-10.89-5.58-21.8-11.1-32.74-16.59-1.28-.64-2.55-1.28-3.83-1.92-1.32-.66-2.65-1.48-4.08-1.86-2.39-.63-4.68.32-6.18,2.21-1.67,2.11-2.47,4.59-3.25,7.13-.82,2.69-1.43,5.44-1.86,8.21-1.84,11.72-.9,23.65.67,35.34,1.5,11.14,3.41,22.23,5.68,33.24,4.48,21.77,10.51,43.21,17.9,64.17,7.39,20.93,16.24,41.33,26.39,61.06,4.99,9.7,10.32,19.24,15.97,28.57,2.8,4.63,5.92,9.1,8.49,13.86.04.08.14.29.18.39.08.17.15.35.23.52.05.12.09.24.14.36.03.07.09.22.13.34.02.05.04.11.06.16-.02-.05-.03-.08-.05-.12,0,.02.01.04.01.05.04.18.08.35.12.53.02.11.03.23.03.3,0,.16,0,.28,0,.36-.02.31-.05.67-.06.71.07-.97-.11.41-.18.71-.04.18-.1.36-.15.55-.04.09-.1.26-.12.31-.39.87-.99,2.09-1.39,2.68-6.1,8.87-18.16,9.05-27.81,9.12-12.31.1-24.62.28-36.93.43-24.71.3-49.42.61-74.12.91-24.71.3-49.42.61-74.12.91-5.97.07-11.95.15-17.92.22-.86.01-1.39,1.54-1.52,2.11-.29,1.27-.16,2.89.18,4.14.54,1.99,1.67,4.92,4.12,4.89,24.71-.3,49.42-.61,74.12-.91,24.62-.3,49.24-.6,73.85-.9,12.31-.15,24.62-.3,36.93-.45,6.14-.08,12.29-.15,18.43-.25,5.33-.09,10.77-.22,15.93-1.67.73.2,1.46.37,2.25.46,1.8.21,3.6.44,5.4.58,3.41.27,6.83.52,10.24.73,6.69.42,13.42.55,20.12.65,13.57.21,27.14-.05,40.69-.77,7.63-.41,15.24-.97,22.85-1.66,1.16-.11,1.49-1.85,1.59-2.71.19-1.61-.02-3.47-.72-4.95-1.53-3.21-2.94-6.48-4.23-9.8-.61-1.58-1.2-3.17-1.76-4.77-.29-.84-.58-1.68-.86-2.52-.1-.31-.2-.61-.3-.92-.21-.65-.2-.61.03.09-.1-.31-.19-.61-.29-.92-2.04-6.6-3.83-13.4-4.92-20.22.23,1.44-.03-.17-.07-.39-.06-.32-.11-.64-.16-.96-.15-.88-.29-1.76-.43-2.64-.29-1.84-.55-3.69-.79-5.54-.45-3.47-.82-6.95-1.12-10.43-.3-3.49-.53-6.99-.71-10.49-.02-.49-.05-.98-.07-1.47,0-.09,0-.15,0-.21-.04-.93-.07-1.85-.1-2.78-.05-1.79-.1-3.59-.12-5.38-.2-13.05.13-26.16,1.46-39.16.07-.72.15-1.44.23-2.16.02-.17.04-.34.06-.5-.02.15.09-.75.1-.84.2-1.58.41-3.15.64-4.73.46-3.14.99-6.26,1.61-9.37.62-3.09,1.32-6.16,2.11-9.2.36-1.38.74-2.75,1.14-4.11.2-.68.41-1.36.62-2.04.13-.41.25-.81.38-1.22.01-.03.19-.57.24-.73,4.33-12.94,10.81-25.07,19.96-35.1.04-.05.07-.11.11-.16,1.12-.12,2.23-.25,3.35-.37,1.57-.17,1.29-3.28,1.12-4.18Z"/>
        <path class="cls-6" d="M765.59,1137.82c-.04-.08-.02-.02.13.35,0-.01,0-.02,0-.03-.04-.11-.08-.21-.12-.32Z"/>
      </g>
      <path class="cls-3" d="M836.75,1007.06c2-11.18,4.29-22.33,7.06-33.35.48-1.91-.29-5.46-2.09-6.59-14.64-9.22-29.78-17.54-45.37-25.04-15.56-7.49-31.51-14.15-47.78-19.94-4.48-1.59-8.99-3.33-13.58-4.6-2.32-.64-4.44.14-5.12,2.57-.41,1.46-.35,3.44.24,5.15,4.6,31.57,11.96,62.81,20.83,93.43,4.53,15.63,9.51,31.13,14.93,46.47,2.68,7.58,5.46,15.11,8.36,22.61,1.45,3.75,2.92,7.48,4.42,11.21,1.46,3.61,2.71,7.6,5.17,10.68,2.69,3.36,6.66,3.94,10.66,4.55,4.82.73,9.64,1.45,14.47,2.18,9.46,1.43,18.93,2.85,28.4,4.28,1.24.19,1.67-1.04,1.8-2.06.2-1.62-.24-3.32-1.01-4.74-1.11-2.04-1.75-3.36-2.63-5.48-.38-.92-.75-1.84-1.09-2.77-.18-.5-.36-1.01-.54-1.51-.1-.29-.2-.58-.29-.87-.01-.04-.02-.06-.03-.09-.01-.03-.02-.06-.03-.11-.65-2.12-1.22-4.26-1.7-6.42-.53-2.39-.69-3.29-1.04-5.64-1.31-8.91-1.39-17.16-.97-26.19.91-19.33,3.56-38.67,6.95-57.7Z"/>
      <path class="cls-5" d="M726.22,1047.54c-.15-.32-.09-.18,0,0h0Z"/>
      <path class="cls-8" d="M410.22,1219.19c.22-15.93,1.34-32.34,8.29-46.68,2.27-4.69,5.26-9.22,9.62-12.07,5.85-3.83,13.26-4.13,20.25-4.3,15.39-.38,30.78-.76,46.18-1.14h513.26c20.63,15.12-20.15,58.13-26.58,72.05-11.28,24.42-15.67,53.26-5.83,78.3,2.13,5.41,4.91,11.25,4.14,16.79l-1.16.98c-3.77,0-7.53.02-11.3.03l-7.75.02c-2.58,0-5.17.01-7.75.02-2.59,0-5.19.01-7.78.01-2.58,0-5.17,0-7.75,0-2.58,0-5.17,0-7.75,0-2.59,0-5.19,0-7.78,0-2.58,0-5.17,0-7.75,0-2.58,0-5.17,0-7.75,0h-7.75c-2.58.01-5.17.02-7.75.02-2.58,0-5.17,0-7.75,0-2.59,0-5.19,0-7.78,0h-15.5c-2.59,0-5.19,0-7.78.01-2.58,0-5.17,0-7.75,0h-23.25c-2.58.01-5.17.01-7.75.01-2.59,0-5.19,0-7.78,0h-7.75c-2.58,0-5.17,0-7.75,0-2.59,0-5.19,0-7.78,0-2.58,0-5.17,0-7.75,0s-5.17,0-7.75,0h-15.5c-2.59,0-5.19,0-7.78.01-2.58,0-5.17,0-7.75,0s-5.17,0-7.75,0c-2.58,0-5.17,0-7.75,0-2.59,0-5.19,0-7.78,0h-7.75c-2.58,0-5.17,0-7.75,0-2.58,0-5.17,0-7.75,0h-7.75c-2.59,0-5.19,0-7.78,0-2.58,0-5.17,0-7.75,0s-5.17,0-7.75,0c-2.58,0-5.17,0-7.75,0h-7.78c-2.58,0-5.17,0-7.75,0-2.58,0-5.17,0-7.75,0-2.58,0-5.17,0-7.75,0-2.58,0-5.17,0-7.75,0-2.59,0-5.19,0-7.78,0-2.58,0-5.17,0-7.75,0-2.58,0-5.17,0-7.75,0-2.59,0-5.19,0-7.78,0-2.58,0-5.17,0-7.75,0-2.58,0-5.17,0-7.75,0s-5.17,0-7.75,0c-2.58,0-5.17,0-7.75,0h-7.75c-2.59,0-5.19,0-7.78,0-2.58,0-5.17,0-7.75,0h-7.75c-2.59,0-5.19,0-7.78,0-2.58,0-5.17,0-7.75,0-2.58,0-5.17,0-7.75,0s-5.17,0-7.75,0-5.17,0-7.75,0c-2.58,0-5.17,0-7.75,0-2.59,0-5.19,0-7.78,0s-5.17,0-7.75,0h-7.75c-2.59,0-5.19,0-7.78,0h-7.75c-3.07,0-6.14,0-9.2,0l-1.49-.83c-1.78-3.1-2.56-6.8-3.21-10.37-5.57-30.65-8.17-61.84-7.75-93Z"/>
      <path class="cls-3" d="M967.08,1311.62c-2.33-.21-4.66-.41-6.98-.56-13.81-.89-27.65-1.35-41.49-1.36-14.22-.02-28.43.42-42.63,1.09-14.39.68-28.89,1.59-43.12-.96-2.2-.39-4.37-.96-6.41-1.86-11.58-5.14-10.95-14.83-13.66-23.6-2.48-8.02-4.79-15.78-5.84-24.23-2.19-17.6-.34-35.52,5.81-52.18,4.13-11.17,10.2-21.79,18.63-30.29,4.76-4.8,13.57-11.48,20.58-11.91,3.54-.22,7.18,1,10.88.9,5.83-.16,11.66-.43,17.49-.57,22.56-.56,45.13-.41,67.67.43,16.17.6,32.32,1.56,48.48,2.52,4.78.28,9.56.57,14.34.85,2.61.16,5.39.36,6.9,3.51.75,1.56.92,3.37.47,5.05-.84,3.17-3.37,5.56-6.14,7.27,2.8-.06,5.25,2.87,4.7,5.61s-3.93,4.51-6.49,3.38c4.44,2.51,5.58,8.85,3.46,13.49s-6.66,7.74-11.38,9.66c4.34,1.46,9.47,3.91,9.7,8.48.22,4.3-4.11,7.27-7.9,9.32,3.09,1.06,6.29,2.18,8.32,4.94.98,1.33,1.5,2.99,1.23,4.62-.72,4.28-5.64,5.45-9.69,5.94,4.09,1.4,7.07,5.58,7.05,9.9s-3.01,8.48-7.11,9.86c2.26,4.02,6.62,6.52,8.29,11.03.58,1.56.69,3.29.11,4.84-1.6,4.25-6.87,4.64-11.17,4.5,4.23,2.39,5.91,8.4,3.53,12.64s-8.4,5.92-12.64,3.54c.72,1.19,1.44,2.37,2.17,3.56.34.55-12.78,1.66-13.93,1.61-4.42-.2-8.84-.63-13.25-1.03Z"/>
      <path class="cls-3" d="M813.8,1318.07c-28.27-20.06-63.18-27.87-97.05-35.23-77.15-16.77-156.84-33.61-234.42-18.93-23.86,4.52-48.76,11.94-71.85,4.39-10.96-3.58-20.74-10.38-31.93-13.14s-25.33.22-29.84,10.83c-5.99,14.09,8.74,29.91,5.01,44.76-1.28,5.08-4.59,9.35-7.76,13.52-28.58,37.52-52.18,78.83-69.99,122.5-16.74,41.05-28.45,84.87-27.27,129.19.27,10.28,1.31,20.81,5.77,30.07,8.34,17.3,26.89,27.05,44.85,33.88,32.56,12.38,67,19.05,101.5,23.86,99.98,13.94,202.09,12.55,301.66-4.09,12.3-2.06,25.01-4.53,35.12-11.82,16.48-11.87,22.21-33.36,27.18-53.06,21.52-85.15,49.82-169.52,54.97-257.2l-5.95-19.53Z"/>
      <path class="cls-6" d="M1032.77,1302.13c-92.8-18.79-190.76-11.41-279.7,21.08-10.11,3.69-20.55,7.77-31.27,6.86-9.38-.8-18.08-5.36-27.41-6.67-9.33-1.3-20.78,2.37-23.02,11.52-2.1,8.56,4.74,16.36,9.39,23.85,16.56,26.67,6.99,60.88,2.51,91.95-7.47,51.75,1.02,104.71,16.13,154.77,1.61,5.32,3.44,10.87,7.5,14.65,5.72,5.34,14.3,5.84,22.12,6.06,36.99,1.01,73.98,2.03,110.97,3.04,68.74,1.88,137.61,3.76,206.22-.97,22.57-1.56,45.36-3.89,66.64-11.55,4.89-1.76,9.86-3.92,13.29-7.83,4.14-4.71,5.42-11.26,5.93-17.51,2.54-31.5-10.66-62.04-25.48-89.96-14.81-27.92-31.78-55.49-37.85-86.5-3.68-18.8-3.18-38.13-5.01-57.2-1.83-19.06-6.37-38.67-18.46-53.52"/>
      <path class="cls-3" d="M2185.82,1003.32c5.95.74,12.02,1.22,18.3,1.38,19.05.48,72.22-17.75,85.38-8.99,9.05,6.02,5.93,19.66,3.76,30.31-4.4,21.56-.35,43.81,2.01,65.69,14.2,131.78-35.09,264.52-112.23,372.3-23.99,33.52-52.19,73.77-37.28,112.2-21.46-1.7-38.19-15.42-58.31-19.76-24.46-5.26-51.41-4.61-76.33-8.46-51.52-7.95-102.38-20.16-151.91-36.41-97.14-31.86-189.24-79.28-271.12-140.56-10.37-7.76-20.73-15.89-28.35-26.36-10.87-14.94-15.36-33.53-18.29-51.77-20.5-127.84,42.95-333.2,177.28-384.44,54.11-20.64,131.32,15.36,185.55,26.08,76.39,15.1,151.79,34.16,226.51,56.04,18.94,5.54,36.38,10.43,55.03,12.76Z"/>
      <path class="cls-8" d="M2486.05,1527.94c-.22-15.93-1.34-32.34-8.29-46.68-2.27-4.69-5.26-9.22-9.62-12.07-5.85-3.83-13.26-4.13-20.25-4.3-15.39-.38-30.78-.76-46.18-1.14h-513.26c-20.63,15.12,20.15,58.13,26.58,72.05,11.28,24.42,15.67,53.26,5.83,78.3-2.25,5.73-5.24,11.94-3.97,17.76,1.51,0,3.02,0,4.54.01,2.58,0,5.17.01,7.75.02l7.75.02c2.58,0,5.17.01,7.75.02,2.59,0,5.19.01,7.78.01,2.58,0,5.17,0,7.75,0,2.58,0,5.17,0,7.75,0,2.59,0,5.19,0,7.78,0,2.58,0,5.17,0,7.75,0,2.58,0,5.17,0,7.75,0h7.75c2.58.01,5.17.02,7.75.02,2.58,0,5.17,0,7.75,0,2.59,0,5.19,0,7.78,0h15.5c2.59,0,5.19,0,7.78.01,2.58,0,5.17,0,7.75,0h23.25c2.58.01,5.17.01,7.75.01,2.59,0,5.19,0,7.78,0h7.75c2.58,0,5.17,0,7.75,0,2.59,0,5.19,0,7.78,0,2.58,0,5.17,0,7.75,0s5.17,0,7.75,0h15.5c2.59,0,5.19,0,7.78.01,2.58,0,5.17,0,7.75,0s5.17,0,7.75,0c2.58,0,5.17,0,7.75,0,2.59,0,5.19,0,7.78,0h7.75c2.58,0,5.17,0,7.75,0,2.58,0,5.17,0,7.75,0h7.75c2.59,0,5.19,0,7.78,0,2.58,0,5.17,0,7.75,0s5.17,0,7.75,0c2.58,0,5.17,0,7.75,0h7.78c2.58,0,5.17,0,7.75,0,2.58,0,5.17,0,7.75,0,2.58,0,5.17,0,7.75,0,2.58,0,5.17,0,7.75,0,2.59,0,5.19,0,7.78,0,2.58,0,5.17,0,7.75,0,2.58,0,5.17,0,7.75,0,2.59,0,5.19,0,7.78,0,2.58,0,5.17,0,7.75,0,2.58,0,5.17,0,7.75,0s5.17,0,7.75,0c2.58,0,5.17,0,7.75,0h7.75c2.59,0,5.19,0,7.78,0,2.58,0,5.17,0,7.75,0h7.75c2.59,0,5.19,0,7.78,0,2.58,0,5.17,0,7.75,0,2.58,0,5.17,0,7.75,0s5.17,0,7.75,0,5.17,0,7.75,0c2.58,0,5.17,0,7.75,0,2.59,0,5.19,0,7.78,0s5.17,0,7.75,0h7.75c2.59,0,5.19,0,7.78,0h7.75c2.58,0,5.17,0,7.75,0,.81,0,1.62,0,2.43,0,2.16-3.25,3.01-7.3,3.72-11.2,5.57-30.65,8.17-61.84,7.75-93Z"/>
      <path class="cls-3" d="M1935.55,1625.9c2.33-.21,4.66-.41,6.98-.56,13.81-.89,27.65-1.35,41.49-1.36,14.22-.02,28.43.42,42.63,1.09,13.21.62,26.51,1.44,39.6-.4,5.65-.79,11.53-2.23,15.68-6.15,5.7-5.38,5.75-12.91,7.9-19.87,2.48-8.02,4.79-15.78,5.84-24.23,2.19-17.6.34-35.52-5.81-52.18-4.13-11.17-10.2-21.79-18.63-30.29-4.76-4.8-13.57-11.48-20.58-11.91-3.54-.22-7.18,1-10.88.9-5.83-.16-11.66-.43-17.49-.57-22.56-.56-45.13-.41-67.67.43-16.17.6-32.32,1.56-48.48,2.52-4.78.28-9.56.57-14.34.85-1.56.09-3.19.2-4.56.95-2.71,1.48-3.63,5.16-2.67,8.09s3.37,5.16,5.99,6.79c-2.8-.06-5.25,2.87-4.7,5.61s3.93,4.51,6.49,3.38c-4.44,2.51-5.58,8.85-3.46,13.49s6.66,7.74,11.38,9.66c-4.34,1.46-9.47,3.91-9.7,8.48-.22,4.3,4.11,7.27,7.9,9.32-2.45.84-4.97,1.72-6.92,3.43s-3.22,4.46-2.43,6.93c1.16,3.64,5.71,4.69,9.5,5.15-4.09,1.4-7.07,5.58-7.05,9.9s3.01,8.48,7.11,9.86c-1.6,2.85-4.26,4.93-6.26,7.51s-3.34,6.19-1.81,9.08c1.9,3.58,6.8,3.92,10.85,3.79-4.23,2.39-5.91,8.4-3.53,12.64s8.4,5.92,12.64,3.54c-.72,1.19-1.44,2.37-2.17,3.56-.34.55,12.78,1.66,13.93,1.61,4.42-.2,8.84-.63,13.25-1.03Z"/>
      <path class="cls-3" d="M2142.94,1598.55c96.56,8.55,194.28,3.84,289.57-13.94,9.78-24.81,13.25-52.08,9.98-78.54-.59-4.77-1.72-10.05-5.7-12.74-3.27-2.21-7.53-2.02-11.46-1.75-53.48,3.59-107.05,5.68-160.65,6.29-26.36.3-52.72.23-79.07-.19-7.84-.13-30.38-4.66-36.57.34-6.57,5.31-2.43,13.83-.59,20.54,3.67,13.4,5.46,25.68,3.88,39.65-.42,3.7-6.93,40.57-9.39,40.35Z"/>
      <path class="cls-3" d="M2523.58,1748.11c1.81,5.17-3.53,7.17-7.35,8.66-2.46.95-4.99,2.52-7.67,3.06-5.58,1.13-11.33-1.35-16.98-.98-47.09,3.1-90.41.84-136.68,1.02-87.46.34-174.91,2.34-262.4,1.38,6.09-28.42-5.04-91.42-15.48-119.35,7.4.07,14.8.15,22.2.22,19.24.19,38.48.39,57.71.58,26.65.27,53.31.54,79.96.8,29.65.3,59.3.6,88.95.89,28.23.28,56.45.57,84.68.85,22.38.22,44.77.45,67.15.67,11.92.12,24.49-.89,36.36.37,7.75.82,6.56,12.62.57,16.26,2.87.72,5.16,3.32,5.53,6.25.37,2.93-1.22,6.02-3.82,7.42,4.7,2.35,7.98,7.32,8.3,12.56s-2.34,10.57-6.72,13.47c4.7,3.81,8.27,9.46,8.24,15.51-.03,6.06-4.43,12.19-10.44,12.94,2.96,1.28,5.89,3.35,6.79,6.45s-1.36,7.1-4.58,6.86c2.49.04,4.86,1.75,5.68,4.09Z"/>
      <path class="cls-4" d="M2518.78,1754.4c.87-.09,1.75-.07,2.63.1,4.29.81,7.37,5.3,7.11,9.66s-3.43,8.26-7.45,9.97c-4.82,2.05-9.9.48-14.86.48-6.59,0-13.17-.02-19.76-.02-12.94,0-25.88.02-38.82.06-57.96.18-115.91.66-173.87.85-58.03.19-116.06.08-174.07-.93-4.21-.07-8.39.08-12.07-2.34.1-.73-.15-1.53,0-2.21.75-.68,1.68-1.34,2.21-2.21,1.02-1.68,4.34-6.24,4.42-6.63,87.48.96,174.93-1.04,262.4-1.38,46.27-.18,89.59,2.08,136.68-1.02,5.26-.35,10.43,1.81,15.46-.46,3.26-1.47,6.56-3.56,10-3.92Z"/>
      <path class="cls-4" d="M2474.57,1628.57c14.68-.15,36.93-4.25,46.77,9.74,1.13,1.6,1.6,3.81.67,5.53-1.01,1.85-3.28,2.59-5.36,2.95-1.81.32-3.72.55-5.56.49-4.98-.17-9.84-1.21-14.96-1.26-4.35-.04-8.69-.09-13.04-.13l-33.04-.33-86.12-.87c-32.67-.33-65.34-.66-98.01-.98l-92.08-.92c-22.77-.23-45.55-.46-68.32-.69-8.92-.09-17.84-.18-26.75-.27-1.34-3.58-2.94-7.52-4.42-11.05l301.45-1.38c33.17-.15,65.77-.5,98.77-.83Z"/>
      <path class="cls-6" d="M1961.14,1903.8l8.33.05c2.78.02,5.55.03,8.33.05s5.55.01,8.33.02c2.78,0,5.55,0,8.33.01,2.78,0,5.55,0,8.33.01,2.78,0,5.55,0,8.33,0h8.33c2.78,0,5.56,0,8.33.01,2.78,0,5.56,0,8.33,0,2.78,0,5.56,0,8.34,0,2.78,0,5.56,0,8.34,0,2.78,0,5.56,0,8.34,0,2.79,0,5.58,0,8.37,0,2.78,0,5.56,0,8.34,0s5.56,0,8.34,0c2.78,0,5.56,0,8.34,0,2.78,0,5.56,0,8.34,0h8.34c2.78,0,5.56,0,8.34,0s5.56,0,8.34,0c2.78,0,5.56,0,8.34,0h8.38c2.78,0,5.56,0,8.34,0h8.35c2.78,0,5.56,0,8.35,0,2.78,0,5.56,0,8.35,0,2.78,0,5.56,0,8.35,0,2.78,0,5.56,0,8.35,0h8.35c2.78,0,5.57,0,8.35,0h8.35s8.35,0,8.35,0c2.78,0,5.57,0,8.35,0,2.78,0,5.57,0,8.35,0,2.78,0,5.57,0,8.35,0,2.78,0,5.57,0,8.35,0,2.78,0,5.57,0,8.35,0,2.78,0,5.57,0,8.35,0h8.35c2.79,0,5.59,0,8.38,0,2.78,0,5.57,0,8.35,0,2.78,0,5.57,0,8.35,0h8.35c2.78,0,5.57,0,8.35,0s5.57,0,8.35,0h8.35c2.78,0,5.57,0,8.35,0,2.78,0,5.57,0,8.35,0s5.59,0,8.38,0c2.78,0,5.56,0,8.35,0h8.35c2.78,0,5.56,0,8.35,0h8.35c2.78,0,5.56,0,8.35,0h8.35c2.78,0,5.56,0,8.34,0h8.34c2.78,0,5.56,0,8.34,0,2.78,0,5.56,0,8.34,0s5.56,0,8.34,0c2.78,0,5.56,0,8.34,0h8.34c2.78,0,5.56,0,8.34,0h8.34c2.78,0,5.56,0,8.34,0h8.34c2.79,0,5.58,0,8.37,0h8.34c2.78,0,5.56,0,8.34,0h1.64c7.7-14.36,14.54-29.26,16.34-45.35,2.33-20.86-4.04-41.61-10.33-61.64-2.14-6.82-4.47-13.95-9.59-18.94-.98-.95-2.01-1.8-3.07-2.54-1.91,0-3.81,0-5.72,0-2.48,0-4.95,0-7.43,0-2.47,0-4.93,0-7.4,0-2.48,0-4.95,0-7.43,0-2.47,0-4.93,0-7.4,0-2.47,0-4.93,0-7.4,0-2.47,0-4.93,0-7.4,0-2.48,0-4.95,0-7.43,0-2.47,0-4.93,0-7.4,0-2.47,0-4.93,0-7.4,0-2.48,0-4.96,0-7.43,0-2.47,0-4.94,0-7.4,0-2.47,0-4.94,0-7.4,0-2.47,0-4.94,0-7.4,0-2.48,0-4.96,0-7.44,0-2.47,0-4.94,0-7.41,0h-7.44c-2.47,0-4.94,0-7.41,0-2.47,0-4.94,0-7.41,0-2.47,0-4.94,0-7.41,0-2.48,0-4.96,0-7.44,0-2.47,0-4.94,0-7.41,0-2.47,0-4.94,0-7.41,0-2.48,0-4.96,0-7.44,0-2.47,0-4.94,0-7.41,0-2.47,0-4.94,0-7.41,0-2.48,0-4.96,0-7.44,0-2.47,0-4.94,0-7.41,0-2.47,0-4.94,0-7.41,0-2.48,0-4.96,0-7.44,0-2.47,0-4.94,0-7.41,0-2.47,0-4.94,0-7.41,0-2.47,0-4.94,0-7.41,0h-7.44s-7.41,0-7.41,0c-2.48,0-4.96,0-7.44,0-2.47,0-4.94,0-7.41,0-2.47,0-4.94,0-7.41,0s-4.94,0-7.41,0c-2.48,0-4.96,0-7.44,0-2.47,0-4.94,0-7.41,0s-4.94,0-7.41,0c-2.48,0-4.96,0-7.44,0-2.47,0-4.94,0-7.41,0-2.47,0-4.94,0-7.41,0-2.48,0-4.96,0-7.44,0h-7.41s-7.41.01-7.41.01c-2.48,0-4.96,0-7.44,0-2.47,0-4.94,0-7.41,0h-7.41s-7.41.01-7.41.01c-2.48,0-4.96,0-7.44,0-2.47,0-4.94,0-7.41,0-2.48,0-4.96,0-7.44,0-2.47,0-4.94,0-7.4,0-2.47,0-4.94,0-7.4,0s-4.94,0-7.4,0c-2.48,0-4.96,0-7.43,0h-7.4s-7.4.02-7.4.02h-7.43s-7.4.02-7.4.02c-2.47,0-4.93,0-7.4,0-2.48,0-4.95,0-7.43,0-2.47,0-4.93,0-7.4,0-2.46,0-4.93,0-7.39,0-2.47,0-4.95,0-7.42,0-2.46,0-4.93,0-7.39,0h-7.39c-2.46.01-4.93.02-7.39.02-1.65,0-3.29,0-4.94.01-5.21,2.71-9.54,6.3-12.48,11.08-19.76,32.13-31.83,68.96-34.91,106.55-.28,3.44-.47,6.95.12,10.33,2.05.01,4.1.02,6.15.03Z"/>
      <path class="cls-3" d="M1947.28,1891.41c-2.1-2.68-2.71-6.64-2.56-10.79.94-27.34,7.06-54.49,17.93-79.6,1.07-2.48,2.28-5.05,4.45-6.67,2.39-1.78,5.53-2.1,8.51-2.35,30-2.55,61-7.56,91.06-7.34,15.82.11,31.64.23,47.46.34,29.87.21,59.75.42,89.62.64,24.23,26.15,24.73,86.53-6.07,107.83-3.23,2.23-15.73.23-19.82.29-6.62.1-13.23.19-19.85.28-39.01.52-78.02.9-117.04.97-19.51.03-39.02-.01-58.52-.16-9.37-.07-19.61,1.01-28.87-.11-2.89-.35-4.92-1.56-6.3-3.33Z"/>
      <path class="cls-4" d="M2448.82,1881.99c11.21-.26,22.46-.59,33.54-2.31,2.87-.45,5.81-1.01,8.28-2.55,2.87-1.79,4.83-4.7,6.53-7.63,11.86-20.49,14.52-46.08,7.15-68.58-14.87.99-29.77-.73-44.62-1.9-46.03-3.64-92.29-2.08-138.43-.52-19.87.67-39.73,1.34-59.6,2.02,2.69-.09,6.72,19.26,7.12,21.57,1.38,7.98,1.54,16.17.53,24.21-1.37,10.86-15.45,31.83.19,34.89,17.72,3.47,38.77,1.07,56.84,1.33,19.25.28,38.49.39,57.74.33,21.58-.07,43.16-.36,64.74-.87Z"/>
      <path class="cls-6" d="M615.81,1665.62c-31.74-11.42-67.11-12.48-99.47-2.97-42.34,12.44-78,41.8-119.97,55.42-73.55,23.88-154.44-3.61-230.67,9.39-65.3,11.14-124.53,53.63-156.01,111.92-5.49,10.17-10.28,21.3-9.64,32.83.61,11,6.16,21.21,13.12,29.75,22.11,27.14,57.42,39.55,91.58,47.19,93.7,20.96,191.03,15.4,286.87,9.73,31.11-1.84,62.23-3.68,93.34-5.52,22.48-1.33,45.06-2.67,67.07-7.43,19.5-4.21,38.47-11.09,58.29-13.33,47.22-5.33,99.96,14.94,139.9-10.79-2.28,1.47-22.17-73.97-23.09-80.99-4.12-31.39.09-60.13,2.51-91.22,2.24-28.74-10.72-28.89-34.85-41.84-26.31-14.12-50.7-31.95-79-42.14Z"/>
      <path class="cls-7" d="M948.62,1255.61c-15.09,72.07-6.11,150.97,34.51,212.38,40.62,61.41,115.35,101.74,188.3,91.77-149.1-17.69-275.15,130.93-425.28,129.05-13.38-.17-28.01-1.21-38.82,6.69-8.48,6.2-12.61,16.58-16.34,26.41-10.86,28.67-21.83,57.79-24.55,88.33-2.72,30.54,3.83,63.23,24.32,86.04,23.04,25.65,59.83,34.77,94.29,33.88s68.06-10.32,102.09-15.8c54.86-8.82,110.79-7.34,166.32-5.28,234.19,8.66,468.73,26.94,702.57,11.53,70.52-4.65,148.08-15.97,194.04-69.65-13.84,35.38-53.02,58.99-90.76,54.7,66.13,10.6,137.49-9.52,185.25-56.47,47.76-46.95,69.04-120.56,49.44-184.6-16.35-53.43-57.96-95.95-104.71-126.56-46.75-30.61-99.19-51.17-149.59-75.32-86.43-41.41-167.57-93.84-240.84-155.62-16.95-14.29-35-32.79-32.45-54.81,1.23-10.6,7.3-20.46,6.96-31.13-.3-9.7-5.85-18.38-11.61-26.19-52.43-71.04-136.79-113.43-223.28-131.15-75.5-15.47-155.59-15.47-232.2-8.72-51.89,4.57-80.12,28.36-106.45,72.6-23.54,39.55-41.78,82.78-51.23,127.91Z"/>
      <path class="cls-7" d="M1293.43,506.14c9.02,34.79,25.49,67.63,47.98,95.66,5.82,7.26,12.1,14.25,19.61,19.75,2.42,1.77,5.42,3.46,8.28,2.54,1.52-.49,2.72-1.64,3.9-2.71,8.65-7.75,19.98-12.46,31.58-13.13-4.07-6.33-6.65-13.62-7.47-21.1,4.06,7.05,8.64,13.79,13.69,20.17,13.25-5.76,29.11-2.49,42.31-8.36,6.43-2.86,11.77-7.7,16.59-12.83,17.72-18.84,30.03-42.72,35.09-68.09.7-3.49.97-7.78-1.87-9.92-2.94-2.21-7.09-.58-10.36,1.1-20.02,10.29-41.69,20.69-64.02,17.84-25.19-3.22-46.72-25.21-49.4-50.46-1.92-18.03,4.78-35.7,10.09-53.04.98-3.2,1.93-6.56,1.33-9.86-1.39-7.69-10.24-11.49-18.01-12.32-16.83-1.8-33.92,4.19-47.49,14.3-13.65,10.17-22.91,24.36-32.8,37.91-9.84,13.48-2.83,37.86.98,52.53Z"/>
      <path class="cls-7" d="M1002.22,1575.83c4.29,3.71,24.76,18.23,28.82,18.02,5.75-.3,33.23-14.86,42.14-18.05,95.24-34.14,272.96-49.79,368.99-18.91,1.98.64,24.55,8.77,20.04,12.94-14.96-4.41-30.25-8.53-45.63-11.35-78.11-14.3-174.79-12.86-252.73,1.99-100.11,19.07-201.93,67.66-297.15,104.81-29.27,11.42-60.8,16.05-89.51,28.7-11.76,5.18-23.13,8.86-35.92,10.56-4.75.63-37.04,8.64-39.05,7.23-38.79-27.28-92.52-50.77-141.08-48.06-24.28,1.35-66.92,12.38-88.7,23.29-17.31,8.67-29.34,21.34-49.43,26.55-38.61,9.94-78,14.86-118.04,15.01,2.74-12.08,15.11-23.33,24.31-30.98,10.84-9.03,23.04-16.32,35.82-22.26,25.63-11.91,53.43-18.5,81.13-23.53,38.78-7.04,90.59-6.49,126-15.99,24.93-6.69,53.85-40.08,86-49.98,4.15-1.28,11.96-3.33,16-4,36.04-5.93,64.64,3.13,97.93,15.07,27.13,9.73,44.38,23.56,75.15,20.99,11.59-.97,27.83-5.53,39.35-8.64,38.38-10.35,75.77-29.85,115.57-33.41Z"/>
      <path class="cls-9" d="M1557.19,486.48c24.84,34.08,26.82,79.29,25.87,121.45-.11,5.06-.28,10.25-2.15,14.95-4.64,11.63-17.92,16.86-29.94,20.37-21.02,6.15-43.14,10.92-64.71,7.12-21.57-3.79-42.54-17.9-48.74-38.9-1.26-4.27.51-9.83.42-14.43-.13-6.12.09-12.24.64-18.34.24-2.68.66-5.59,2.62-7.42,1.25-1.17,2.95-1.71,4.58-2.25,7.23-2.42,14.19-5.59,20.9-9.22,5.64-3.05,16.91-6.57,14.53-14.13-20.19,13.56-43.23,23.49-67.44,25.84-24.21,2.36-49.62-3.32-68.89-18.16-24.18-18.62-35.96-48.68-43.43-78.53-.61-2.41-1.19-4.82-1.74-7.22-2.84-12.35-5.26-24.85-6.55-37.44-.59-5.72-.95-11.46-1.01-17.22-.24-22.95,4.62-45.84,13.66-66.91,7.81-18.2,18.73-35.09,32.23-49.59,11.71-12.59,23.16-29.73,39.99-34.95,18.7-5.8,44.09-6.52,61.66,2.87,13.67,7.3,23.12,20.5,31.1,33.79,9.96,16.57,18.45,34.02,25.31,52.1,3.28,8.62,6.24,17.5,11.37,25.17,11.87,17.74,16.96,10.91,30.38,1.61,10.59-7.34,25.73-10.92,37.17-3.35,6.36,4.22,10.46,11.13,13.28,18.22,13.33,33.48-.51,75.55-31.11,94.58Z"/>
      <path class="cls-7" d="M1730.55,569.69c-.65,1.24-2.04,1.87-3.33,2.41-8.73,3.68-17.46,7.36-26.38,10.56-2.07.74-22.41,5.48-22.41,6.33-6.7-26.78-14.16-54.95-33.66-74.49,8.29,15.73,12.47,33.24,16.37,50.59,2.04,9.07,4.04,18.39,2.69,27.59-9.8,1.21-19.74,1.33-29.57.34-2.31-11.93-6.11-23.56-11.27-34.56,2.8,11.58,3.95,23.55,3.43,35.45-.05,1.07-21.81,2.53-24.05,2.3-6.92-.71-14.13-1.04-21-2.2-1.77-.3-3.63-.72-4.89-1.99-1.22-1.22-1.66-3-2.06-4.69-1.55-6.62-3.19-13.22-4.93-19.79-4.82-18.26-10.34-36.33-16.55-54.16-1.63-4.68-9.84-19.8-7.88-23.76.93-1.88,7.49-4.47,9.39-5.84,2.76-1.99,5.39-4.14,7.89-6.45,20.61-19.03,31.7-48.28,26.99-76.15-1.85-10.94-10.1-30.77-23.39-32.06-8.42-.82-17.24,3.73-24.75,6.87-6.96,2.91-11.81,9.87-14.65,16.83-.15.37-.32.77-.65.98-.45.29-1.04.16-1.56,0-4.1-1.23-7.74-3.57-11.7-4.86-4.21-1.37-8.52-2.44-12.72-3.88-8.71-3-17.22-6.59-25.45-10.74-16.23-8.17-31.4-18.5-44.91-30.66-20.38-18.35-37.09-40.79-59.24-56.95-.83-.6-1.76-1.23-2.79-1.17-1.1.07-1.99.91-2.76,1.7-14.98,15.34-22.19,31.07-32.68,49.22-16.76,28.96-28.54,60.99-32.54,94.27-.32,2.61-.58,5.22-.8,7.84-.6,7.27-.81,14.57-.62,21.85,1.54,62.77,31.56,124.66,80.7,163.93-6.66,7.98-17.32,12.44-27.67,11.57-60.66-5.11-75-108.01-79.98-152.97-4.61-41.7-5.44-85.8,13.11-123.43-38.57,51.91-47.08,124.64-21.55,184.06-21.37-13.9-29.55-41.47-30.41-66.96-1.35-39.74,11.16-78.99,29.8-114.12,10.93-20.59,23.96-39.98,37.79-58.71,19.89-26.97,38.73-50.53,67.05-69.06,31.12-20.35,66.8-33.13,103.15-40.32,42.45-8.39,93.91-9.33,124.43,26.49,13.35,15.67,22.95,34.12,31.93,52.63,22.08,45.48,41.23,92.7,52.04,142.09,4.37,19.94,7.37,40.23,13.28,59.77,5.55,18.35,13.59,35.83,21.61,53.23,5.48,11.91,10.97,23.81,16.45,35.72.78,1.69,1.55,3.68.69,5.33Z"/>
      <path class="cls-7" d="M1452.3,382.13c2-.54,4.35-1.57,4.55-3.63.16-1.69-1.27-3.09-2.68-4.04-6.87-4.64-30.7-9.69-33,2.38-2.83,14.82,24.18,7.17,31.13,5.29Z"/>
      <path class="cls-7" d="M1330.42,368.68c-3.72,1.95-7.02,6.74-4.48,10.08,1.07,1.41,2.87,2.03,4.59,2.5,5.17,1.41,10.55,2.06,15.91,1.95,3.37-.07,6.91.13,10.16-.88,1.32-.41,2.92-1.05,3.44-2.46.87-2.37-1.21-3.42-2.64-4.71-3.96-3.59-6.95-6.71-12.4-8.04-4.85-1.18-10.13-.78-14.58,1.56Z"/>
      <g>
        <path class="cls-1" d="M1390.75,496.74c-.04-.17-.68-2.26-1.06-1.99-.22.15-.52.24-.76.34-.12.05-.26.12-.39.16v.03c-.04.08-.11.07-.21-.02-.09,0-.18,0-.27.01-.25,0-.56-.04-.81.01-.28.06-.57.24-.84.34-1.09.41-2.21.68-3.34.96-2.27.56-4.63.72-6.95.54-1.29-.1-2.57-.32-3.83-.64-2.87-.75-5.6-2.01-8-3.76-.61-.44-1.19-.92-1.75-1.42-.24-.22-.47-.44-.71-.67-.04-.04-.22-.22-.26-.27-.15-.16-.29-.31-.43-.48-.47-.54-.91-1.1-1.32-1.68-.1-.15-.2-.29-.3-.44,0,0,0-.02-.01-.02-.02-.03-.04-.06-.06-.09,0,0,0-.02-.01-.02-.03-.05-.06-.09-.09-.13.03.04.04.06.06.09-.19-.32-.37-.64-.54-.96-.06-.12-.12-.25-.19-.37.2-.4.48-.74.8-1.04.9-.77,1.96-1.36,2.91-2.06,1.03-.76,2.01-1.6,2.94-2.48,1.82-1.72,3.42-3.67,4.84-5.73,2.9-4.23,5.04-8.94,6.84-13.73,2.11-5.62,3.84-11.39,5.37-17.2,1.59-6.07,2.88-12.2,3.88-18.4,1.02-6.36,1.73-12.77,1.98-19.21.03-.83.04-1.66.04-2.49,0-.56-.15-1.18-.39-1.69-.08-.17-.42-.73-.49-.23-.37,2.6-.61,5.21-.96,7.81-.36,2.72-.74,5.44-1.17,8.15-.87,5.44-1.97,10.85-3.28,16.2-1.3,5.33-2.83,10.61-4.58,15.8-1.52,4.49-3.16,8.96-5.29,13.2-2.25,4.48-5.07,8.72-8.77,12.13-.74.66-1.5,1.3-2.3,1.88-.8.59-1.65,1.09-2.46,1.66-.8.57-1.59,1.26-1.9,2.23-.63,1.99-.03,4.35.61,6.27,1.21,3.65,3.2,6.94,5.99,9.6,4.65,4.44,11.33,6.81,17.74,6.44,1.75-.1,3.51-.38,5.15-1.02.83-.33,1.69-.69,2.45-1.17.43-.28.76-.78,1.06-1.19.25-.34.71-.76,1.07-1.01.22-.15.22-.48.22-.71,0-.5-.09-1.06-.22-1.54Z"/>
        <path class="cls-1" d="M1352.69,487.74c.04.06.04.05-.1-.16,0,.01.02.03.02.04.02.04.05.08.07.11Z"/>
      </g>
      <path class="cls-7" d="M1409.35,522.69c-.06-.6-.19-1.23-.39-1.8-.08-.24-.71-2.01-1.12-1.44-1.47,2.02-3.08,3.93-4.93,5.62-3.1,2.79-6.72,5.01-10.61,6.49-3.96,1.51-8.21,2.24-12.45,2.09-2.4-.09-4.79-.42-7.12-1.01-4.38-1.14-8.41-3.15-12.1-5.74-.49-.35-.97-.71-1.46-1.07-.19-.14-.46-.45-.71-.46-.08,0-.16.03-.23.01-.11-.03-.27-.21-.36-.28-.17-.14-.11.47-.11.49.04.3.12.68.31.92.17.21.35.42.49.66.17.31.34.62.58.89.37.41.74.81,1.13,1.2.74.74,1.51,1.43,2.33,2.09,1.55,1.25,3.24,2.31,5.01,3.23,3.45,1.8,7.29,2.94,11.15,3.43,3.76.48,7.64.19,11.31-.73,3.63-.91,7.12-2.45,10.24-4.53,3.12-2.09,5.92-4.7,8.17-7.72.28-.38.54-.78.79-1.18.18-.27.11-.87.08-1.15Z"/>
      <g>
        <path class="cls-7" d="M1459.78,413.07c-.05-.14-.09-.25,0,0h0Z"/>
        <path class="cls-7" d="M1461.15,416.44c-1.15-4.5-3.66-8.57-7.13-11.65-3.01-2.67-6.69-4.5-10.6-5.39-3.9-.89-8.03-.72-11.83.57-3.91,1.32-7.41,3.66-10.3,6.59-1.45,1.47-2.7,3.11-3.78,4.87-1.16,1.91-1.94,3.98-2.54,6.13-.18.65-.23,1.31-.27,1.98-.01.21.34,1.91.66,1.61.28-.26.45-.52.6-.87.17-.38.38-.74.56-1.11.39-.79.84-1.56,1.32-2.3,1-1.57,2.02-3.08,3.26-4.47.69-.77,1.4-1.51,2.16-2.21,2.27-2.05,4.89-3.73,7.73-4.87,2.86-1.15,5.95-1.79,9.04-1.72,1.67.04,3.34.27,4.96.67,2.82.73,5.5,1.97,7.87,3.66.59.42,1.17.87,1.72,1.35.26.23.52.46.78.7.13.12.25.24.38.36.02.02.1.1.12.12.06.06.11.12.17.17.5.53.97,1.08,1.41,1.65.21.28.42.56.62.84.1.14.2.29.29.43.05.07.1.15.14.22,0,.01.01.02.02.03.21.35.41.69.6,1.05.09.18.19.36.28.54.03.05.05.11.08.16,0,0,0,0,0,0,.15.34.29.69.43,1.04.02.06.04.12.06.19.08.24.17.48.26.72-.05-.14-.08-.23-.11-.3.02.05.04.1.05.14.08.23.59,1.86,1.06,1.51.18-.13.18-.56.17-.72,0-.57-.1-1.14-.24-1.69Z"/>
        <path class="cls-7" d="M1361.92,417.77c-.89-4.56-3.15-8.77-6.44-12.04-2.85-2.84-6.42-4.88-10.27-6-3.84-1.12-7.97-1.18-11.84-.12-3.98,1.09-7.61,3.22-10.66,5.98-1.53,1.38-2.88,2.95-4.05,4.64-1.27,1.84-2.17,3.86-2.89,5.97-.22.64-.31,1.29-.39,1.96-.03.21.23,1.93.57,1.65.29-.25.48-.5.65-.84.19-.37.42-.72.63-1.08.44-.77.93-1.5,1.45-2.22,1.09-1.51,2.19-2.96,3.51-4.28.73-.73,1.49-1.42,2.28-2.08,2.39-1.92,5.09-3.44,8-4.41,2.93-.98,6.04-1.44,9.12-1.19,1.67.13,3.32.46,4.91.96,2.77.9,5.37,2.29,7.64,4.11.57.46,1.12.94,1.64,1.45.25.24.5.49.74.75.12.13.24.26.35.39.02.02.09.11.11.12.05.06.11.12.16.18.47.55.91,1.13,1.32,1.73.2.29.39.58.57.87.09.15.18.3.27.45.04.08.09.15.13.23,0,.01.01.02.02.03.19.36.37.72.54,1.08.08.18.17.37.24.56.02.05.05.11.07.17,0,0,0,0,0,0,.13.35.25.71.37,1.06.02.06.03.13.05.19.07.24.14.49.22.73-.04-.14-.07-.23-.09-.3.01.05.03.1.04.14.07.24.48,1.89.97,1.57.18-.12.21-.55.22-.71.03-.57-.03-1.15-.14-1.7Z"/>
      </g>
      <circle class="cls-7" cx="1434.08" cy="412.92" r="11.76"/>
      <circle class="cls-7" cx="1333.14" cy="413.39" r="11.76"/>
      <path class="cls-9" d="M1832.1,996.25c-17.74,15.24-35.58,31.42-45.94,52.39-15.73,31.84-12.47,71.27-31.59,101.2-7.02,10.99-16.87,20.16-28.34,26.38-3.88,2.1-8.55,4.81-8.51,9.22.01,1.57.68,3.06,1.49,4.4,5.7,9.4,19.29,12.19,29.13,7.29,9.85-4.9,15.71-15.97,16.22-26.95-8.31,25.75-4.25,53.88,3.09,79.93,7.34,26.04,17.9,51.24,22.71,77.87,1.35,7.44,3.35,16.39,10.52,18.81,7.12,2.41,14.68-4.05,16.57-11.32s-.11-14.9-1.57-22.27c-5.41-27.34-3.18-56.15,6.36-82.34-3.49,20.36-5.44,40.99-5.82,61.64-.17,9.08.11,18.67,4.86,26.41,4.76,7.73,15.55,12.47,23.25,7.67,3.9-2.43,6.22-6.68,8.37-10.75,5.32-10.06,10.64-20.12,15.96-30.18.12,8.96-9.03,19.03-2.8,25.48,3.03,3.13,8.1,2.91,12.31,1.79,20.01-5.34,32.77-24.37,43.67-41.98-4.08,4.71-1.47,12.88,4.08,15.72s12.56,1.2,17.57-2.49c5.02-3.7,8.44-9.12,11.59-14.5,9.38-15.96,17.5-32.61,25.61-49.25,14.58-29.92,29.37-60.48,33.81-93.47,2.14-15.92,1.82-32.08,3.64-48.04,2.37-20.76,8.4-41.1,17.72-59.8,5.95-11.92,13.46-24.5,11.07-37.61-1.57-8.58-7.25-15.84-13.53-21.9-21.97-21.22-52.66-31.07-82.79-31.47-11.01-.15-23.7-.45-34.12,3.71-13.39,5.35-25.32,15.81-36.46,24.65-16.31,12.95-32.36,26.21-48.15,39.78Z"/>
      <path class="cls-4" d="M2131.41,1071.65c-31.88,36.6-77.84,57.23-122.28,76.76-1.38-24.81-2.67-50.39,5.58-73.83,4.01-11.42,10.21-22.05,13.42-33.72,12.69-46.07-28.38-94.39-75.51-102.34-47.12-7.96-94.67,15.15-130.43,46.85,7.3-12.11,16.27-23.19,26.55-32.89,12.91-5.59,24.63-13.82,33.93-24.44-12.34,6.56-23.77,14.83-33.93,24.44-25.82,11.18-56.39,11.78-81.93-.22,9.08-12.81,18.15-25.63,27.23-38.44-76.56,84.26-137.46,182.69-178.68,288.81-2.51,6.48-5.45,13.55-11.66,16.67-10.28,5.18-21.85-3.42-30.34-11.2-108.06-99-251.49-158.57-397.89-165.28-6.55-.3-13.61-.68-18.73-4.78-.6-.48-1.16-1.01-1.69-1.57-.81,44.95-33.26,87.93-74.14,109.45-47.55,25.02-103.61,27.07-157.32,25.25-44.41-1.51-93.82-7.79-122.16-42.02-29.88-36.09-24.29-90.95-2.8-132.58,52.34-101.39,174.55-144.25,250.44-229.45,24.67-27.71,44.46-59.96,72.52-84.23,55.9-48.37,137.77-57.64,209.66-40.36,22.13,5.32,43.83,14.01,66.8,14.92,5.42.21,10.89.03,16.24-.94,7.37-1.33,9.78-1.11,9.86-7.57s-3.49-14.01-4.15-20.58c-.71-6.96-.74-13.99-.07-20.96.55-5.78,1.94-12.13,6.66-15.5,4.09-2.93,9.73-2.78,14.47-1.08s8.85,4.73,13.13,7.38c30.4,18.86,73.97,23.5,106,6.87,7.8-4.05,14.88-10.06,18.59-18.03,1.11-2.38,2.02-5.06,4.16-6.59,2.3,1.89,3.51,4.77,4.63,7.53,5.6,13.77,11.65,27.28,15.45,41.65,1.07,4.04,2.19,8.2,4.73,11.52,8.36,10.94,25.25,6.85,38.74,4.04,41.18-8.59,84.2,6,119.7,28.57,35.5,22.58,65.36,52.8,97.58,79.86,65.03,54.62,139.79,96.43,215.89,134.12,25.85,12.8,53.09,26.15,69.48,49.88,27.59,39.93,14.14,97.42-17.73,134.03Z"/>
      <path class="cls-6" d="M1882.67,928.04c-9.3,10.62-21.02,18.85-33.93,24.44,10.16-9.61,21.59-17.88,33.93-24.44Z"/>
      <rect class="cls-7" x="1175.87" y="518.17" width="177" height="270.92" rx="17.68" ry="17.68" transform="translate(-147.21 471.14) rotate(-19.97)"/>
      <rect class="cls-4" x="1169.37" y="520.54" width="177" height="270.92" rx="17.68" ry="17.68" transform="translate(-148.41 469.06) rotate(-19.97)"/>
      <path class="cls-9" d="M1406.67,730.68c-1.55,9.43-5.12,18.13-10.11,26.1.64-.52,1.27-1.05,1.91-1.58,3.66,19.13-2.27,38.81-10.32,56.54-26.66,58.7-76.4,104.43-131.68,137.61-16.03,9.62-33.18,18.5-51.81,20.18-12.2,1.1-24.45-.95-36.71-1.08-29.6-.32-58.44,10.66-83.56,26.32-25.12,15.66-47.01,35.9-68.73,56.02-13.46-7.21-22.3-25.58-24.46-40.24-2.5-16.99-5.42-35.23-5.92-52.52-.44-15.55,1.49-31.13,5.23-46.23,2.57-10.4,6.02-20.63,11.05-30.08,4.54-8.53,10.32-16.34,16.19-24.01,23.29-30.49,48.12-61.31,75.93-87.84,11.14-10.61,15.4-25.84,22.28-39.63,7.97-15.97,16.18-32.22,19.15-50.01,2.79-16.78.72-34-2.73-50.65-.92-4.45-1.94-9.08-.83-13.48,1.11-4.4,5.12-8.45,9.63-7.92,1.82.22,3.47,1.13,5.01,2.11,1.34.85,2.62,1.77,3.84,2.75h0c15.85,12.65,22.23,35.09,20.35,55.56-.14,1.54-.32,3.08-.54,4.6-.15,1.1-.33,2.18-.52,3.27.65-1.05,1.32-2.09,2.01-3.12h.53c14.61-24.01,49.49-38.45,72.71-50.26,14.07-7.15,42.61-25.18,55.73-28.39,14.7-3.6,17.95,8.32,14.61,20.75-8.71,32.4-72.07,56.51-93.08,82.94-5.19,6.52-9.82,19.83-13.97,24.94l2.31,2.31c-.21.68-.41,1.38-.59,2.07.61-.28,1.21-.56,1.82-.84,47.22-21.78,98.68-34.3,150.61-36.75,6.58-.32,13.16-.47,19.75-.46,4.33,0,9.27.38,11.91,3.8,2.98,3.86,1.24,9.82-2.4,13.07s-8.59,4.5-13.29,5.78c-47.7,12.94-91.65,39.42-125.37,75.54,39.19-31.45,83.9-56.01,131.48-72.22,6.84-2.33,15.58-4.03,20.31,1.44,3.11,3.6,3.04,8.92,2.27,13.61Z"/>
      <path class="cls-7" d="M1161.89,583.23c-8.89-4.24-8.26-17.47.96-20.15,18.74-5.47,17.67,29.02-.96,20.15Z"/>
      <path class="cls-7" d="M1180.53,606.8c-16.31,9.95-21.15-16.29-5.81-17.68,8.65-.78,15.63,11.69,5.81,17.68Z"/>
      <path class="cls-2" d="M1570.85,516.51c-38.74,3.16-46.31-56.82-8-57.97,3.8,11.73-11.29,15.2-11.4,24.57-.14,12.13,5.11,21.1,17.4,19.41,21.06-2.89,7.44-13.92,10.13-22.76.99-3.27,5.38-2.72,5.87-3.22,15.83,14.78,8.71,38.13-14,39.98Z"/>
      <path class="cls-1" d="M1325.28,458.7c.89-2.25.66-4.81-.13-7.1-.74-2.17-1.99-4.18-3.69-5.71-6.67-5.98-22.62-1.35-18.31,9.05,3.12,7.52,18.12,13.92,22.13,3.76Z"/>
      <path class="cls-1" d="M1443.72,472.14c2.87,1.79,6.46,2.02,9.81,1.58,4.49-.59,9-2.4,11.93-5.86s3.88-8.78,1.5-12.64c-1.53-2.49-4.22-4.1-7.03-4.89-4.49-1.27-9.5-.59-13.5,1.83-6.91,4.18-11.21,14.67-2.71,19.98Z"/>
      <path class="cls-6" d="M1956.99,325.02c-50.29,0-91.06,61.63-91.06,137.65,0-76.02-40.77-137.65-91.06-137.65,50.29,0,91.06-61.62,91.06-137.64,0,76.02,40.77,137.64,91.06,137.64Z"/>
      <path class="cls-6" d="M2007.85,86.42c-31.57,0-57.17,38.7-57.17,86.43,0-47.73-25.6-86.43-57.18-86.43,31.58,0,57.18-38.69,57.18-86.42,0,47.73,25.6,86.42,57.17,86.42Z"/>
      <path class="cls-6" d="M2136.22,425.09c-31.57,0-57.17,48.99-57.17,109.4,0-60.42-25.6-109.4-57.18-109.4,31.58,0,57.18-48.97,57.18-109.39,0,60.42,25.6,109.39,57.17,109.39Z"/>
      <path class="cls-6" d="M889.15,718.47c-19.88,0-36,30.85-36,68.89,0-38.04-16.11-68.89-36-68.89,19.89,0,36-30.83,36-68.88,0,38.05,16.12,68.88,36,68.88Z"/>
      <path class="cls-6" d="M2336.58,631.84c-36.54,0-66.17,56.71-66.17,126.64,0-69.93-29.62-126.64-66.18-126.64,36.56,0,66.18-56.67,66.18-126.62,0,69.95,29.63,126.62,66.17,126.62Z"/>
      <path class="cls-6" d="M701.32,235.53c-27.41,0-49.63,42.53-49.63,94.98,0-52.45-22.22-94.98-49.64-94.98,27.42,0,49.64-42.5,49.64-94.97,0,52.47,22.22,94.97,49.63,94.97Z"/>
      <path class="cls-6" d="M708.86,551.66c-27.41,0-49.63,42.53-49.63,94.98,0-52.45-22.22-94.98-49.64-94.98,27.42,0,49.64-42.5,49.64-94.97,0,52.47,22.22,94.97,49.63,94.97Z"/>
      <path class="cls-6" d="M959.45,387.39c-38.82,0-70.29,60.24-70.29,134.53,0-74.29-31.48-134.53-70.31-134.53,38.83,0,70.31-60.19,70.31-134.51,0,74.32,31.47,134.51,70.29,134.51Z"/>
      <path class="cls-6" d="M504.5,1060.71c-19.88,0-36,30.85-36,68.89,0-38.04-16.11-68.89-36-68.89,19.89,0,36-30.83,36-68.88,0,38.05,16.12,68.88,36,68.88Z"/>
      <path class="cls-6" d="M316.67,577.78c-27.41,0-49.63,42.53-49.63,94.98,0-52.45-22.22-94.98-49.64-94.98,27.42,0,49.64-42.5,49.64-94.97,0,52.47,22.22,94.97,49.63,94.97Z"/>
      <path class="cls-6" d="M324.2,893.9c-27.41,0-49.63,42.53-49.63,94.98,0-52.45-22.22-94.98-49.64-94.98,27.42,0,49.64-42.5,49.64-94.97,0,52.47,22.22,94.97,49.63,94.97Z"/>
      <path class="cls-6" d="M574.8,729.64c-38.82,0-70.29,60.24-70.29,134.53,0-74.29-31.48-134.53-70.31-134.53,38.83,0,70.31-60.19,70.31-134.51,0,74.32,31.47,134.51,70.29,134.51Z"/>
      <path class="cls-7" d="M125.67,1807.38c0-.33,0-.67,0-1,0-.24-.06-.5-.15-.73-.04-.11-.11-.35-.25-.37-.16-.02-.28-.05-.44-.11-.09-.06-.16-.04-.22.05-.14.24-.39.4-.52.64-.18.33-.31.69-.46,1.04-.3.69-.56,1.4-.81,2.11-.52,1.42-.99,2.85-1.44,4.29-.93,3-1.79,6.03-2.5,9.09-1.41,6.01-2.43,12.11-3.06,18.26-.64,6.25-.91,12.54-.76,18.82.15,6.5.72,12.98,1.69,19.41.98,6.54,2.42,13,4.24,19.36.15.51.28,1.01.48,1.5.18.44.42.82.67,1.22.1.15.29.29.42.1.16-.24.09-.71.07-.95-.04-.44-.08-.87-.16-1.31-.1-.57-.27-1.13-.43-1.68-.01-.05-.03-.12-.06-.2-.2-.7-.39-1.4-.58-2.11-.4-1.5-.78-3.01-1.13-4.52-.16-.69-.31-1.39-.47-2.09,0-.03-.01-.06-.02-.08-.04-.18-.08-.37-.11-.55-.08-.4-.16-.81-.24-1.21-.3-1.51-.57-3.02-.82-4.53-.13-.78-.25-1.55-.36-2.33-.03-.19-.05-.37-.08-.56,0-.02,0-.04,0-.06-.05-.38-.1-.77-.15-1.15-.2-1.54-.38-3.08-.53-4.63-.15-1.53-.27-3.06-.37-4.59-.02-.37-.05-.75-.07-1.12,0-.14-.02-.28-.02-.42,0-.11-.01-.21-.02-.32-.04-.77-.07-1.54-.1-2.3-.1-3.09-.11-6.18-.02-9.27.05-1.55.12-3.11.21-4.66.01-.19.02-.37.04-.56,0-.13.03-.73.02-.24.01-.37.05-.75.08-1.12.06-.78.13-1.57.2-2.35.58-6.16,1.54-12.28,2.9-18.31.68-3.02,1.42-6.02,2.28-8.99.1-.36.21-.73.32-1.09.03-.11.06-.22.1-.33,0-.01.01-.05.02-.08.06-.21.12-.41.19-.62.11-.36.22-.72.34-1.08.15-.46.2-.66.35-1.16.48-1.56.99-3.15,1.44-4.68.15-.5.18-1.01.28-1.53.06-.3.03-.59.03-.89Z"/>
      <path class="cls-6" d="M1819.11,1264.29c.11,1.37.27,2.77.45,4.21,1.08,8.41,18.06.23,23.03-1.13,10.58-2.88,21.13-5.85,31.67-8.89,21.64-6.24,43.19-12.79,64.67-19.54,42.44-13.33,84.62-27.44,126.8-41.55,1.5-.5,3.13-1.11,3.88-2.5.64-1.19.45-2.64.25-3.98-2.01-13.16-5.01-11.59-17.17-8.32-11.22,3.02-22.44,6.05-33.65,9.1-22.43,6.11-44.83,12.29-67.21,18.55-28.2,7.89-56.37,15.89-84.5,24.01-12.68,3.66-25.99,6.53-38.41,10.9-9.16,3.22-10.49,10.4-9.8,19.15Z"/>
      <path class="cls-6" d="M1691.4,1299.02c.69.4,1.63.65,2.55.97,4.32,1.51,8.93,1.93,13.45,2.35,2.78.26,5.56.51,8.34.77,9.53.88,19.83-3.68,28.86-6.28,7.09-2.05,14.17-4.13,21.24-6.23,3.47-1.03,6.93-2.27,10.45-3.11,2.57-.61,3.67-.83,2.64-4.22-1.97-6.54-3.95-13.08-5.92-19.61-.65-2.15-31.72,7.89-35.36,8.94-8.32,2.4-16.75,4.42-25.09,6.76-7.49,2.1-12.95,7.15-18.13,12.89-1.02,1.13-3.68,3.04-4.01,4.54-.26,1.15.19,1.79.96,2.24Z"/>
    </g>
  </g>
</svg>